<svg width="32" height="32" viewBox="0 0 32 32" fill="none" xmlns="http://www.w3.org/2000/svg">
<path d="M12.0007 7.77777C12.0007 6.95265 11.6495 6.16133 11.0243 5.57788C10.3992 4.99443 9.55137 4.66666 8.66732 4.66666V4.66666C7.78326 4.66666 6.93542 4.99443 6.31029 5.57788C5.68517 6.16133 5.33398 6.95265 5.33398 7.77777V14" stroke="#191A23" stroke-width="1.5" stroke-linecap="round" stroke-linejoin="round"/>
<path d="M4 14H28M23.3333 24.6667L24 27.3333M8.66667 24.6667L8 27.3333M26.6667 19.3333V14H5.33333V19.3333C5.33333 20.7478 5.89524 22.1044 6.89543 23.1046C7.89562 24.1048 9.25218 24.6667 10.6667 24.6667H21.3333C22.7478 24.6667 24.1044 24.1048 25.1046 23.1046C26.1048 22.1044 26.6667 20.7478 26.6667 19.3333Z" stroke="#191A23" stroke-width="1.5" stroke-linecap="round" stroke-linejoin="round"/>
</svg>
