<svg width="32" height="32" viewBox="0 0 32 32" fill="none" xmlns="http://www.w3.org/2000/svg">
<path d="M27.8512 24.6667V21.7778M4.1475 24.6667V21.7778M29.3327 21.7778H2.66602V17.4445C2.66602 17.0614 2.8221 16.694 3.09993 16.4231C3.37776 16.1522 3.75458 16 4.1475 16H27.8512C28.2441 16 28.6209 16.1522 28.8988 16.4231C29.1766 16.694 29.3327 17.0614 29.3327 17.4445V21.7778ZM26.3697 8.77779C26.3697 8.3947 26.2136 8.0273 25.9358 7.75641C25.658 7.48553 25.2812 7.33334 24.8882 7.33334H7.11046C6.71755 7.33334 6.34073 7.48553 6.06289 7.75641C5.78506 8.0273 5.62898 8.3947 5.62898 8.77779V16H26.3697V8.77779Z" stroke="#191A23" stroke-width="1.5" stroke-linecap="round" stroke-linejoin="round"/>
</svg>
