<svg width="32" height="32" viewBox="0 0 32 32" fill="none" xmlns="http://www.w3.org/2000/svg">
<path d="M14.1336 5.53339V8.00002H12.1603C10.0137 8.00002 8.93367 9.08 8.93367 11.2267V24H5.53369C3.62702 24 2.66699 23.04 2.66699 21.1333V5.53339C2.66699 3.62672 3.62702 2.66669 5.53369 2.66669H11.267C13.1737 2.66669 14.1336 3.62672 14.1336 5.53339Z" fill="#191A23"/>
<path opacity="0.4" d="M23.1602 11.2266V26.1067C23.1602 28.2534 22.0936 29.3333 19.9469 29.3333H12.1602C10.0136 29.3333 8.93359 28.2534 8.93359 26.1067V11.2266C8.93359 9.07998 10.0136 8 12.1602 8H19.9469C22.0936 8 23.1602 9.07998 23.1602 11.2266Z" fill="#191A23"/>
<path d="M29.3328 5.53339V21.1333C29.3328 23.04 28.3728 24 26.4661 24H23.1595V11.2267C23.1595 9.08 22.0929 8.00002 19.9462 8.00002H17.8662V5.53339C17.8662 3.62672 18.8262 2.66669 20.7328 2.66669H26.4661C28.3728 2.66669 29.3328 3.62672 29.3328 5.53339Z" fill="#191A23"/>
<path d="M18.6663 15.6667H13.333C12.7863 15.6667 12.333 15.2134 12.333 14.6667C12.333 14.12 12.7863 13.6667 13.333 13.6667H18.6663C19.213 13.6667 19.6663 14.12 19.6663 14.6667C19.6663 15.2134 19.213 15.6667 18.6663 15.6667Z" fill="#191A23"/>
<path d="M18.6663 19.6667H13.333C12.7863 19.6667 12.333 19.2134 12.333 18.6667C12.333 18.12 12.7863 17.6667 13.333 17.6667H18.6663C19.213 17.6667 19.6663 18.12 19.6663 18.6667C19.6663 19.2134 19.213 19.6667 18.6663 19.6667Z" fill="#191A23"/>
<path d="M17 25.3333V29.3333H15V25.3333C15 24.7866 15.4533 24.3333 16 24.3333C16.5467 24.3333 17 24.7866 17 25.3333Z" fill="#191A23"/>
</svg>
