<svg width="20" height="20" viewBox="0 0 20 20" fill="none" xmlns="http://www.w3.org/2000/svg">
<path d="M18.3337 18.9583H1.66699C1.32533 18.9583 1.04199 18.6749 1.04199 18.3333C1.04199 17.9916 1.32533 17.7083 1.66699 17.7083H18.3337C18.6753 17.7083 18.9587 17.9916 18.9587 18.3333C18.9587 18.6749 18.6753 18.9583 18.3337 18.9583Z" fill="#191A23"/>
<path opacity="0.4" d="M17.4997 8.31657V18.3333H2.45801L2.49967 8.30823C2.49967 7.79989 2.73301 7.3166 3.14134 6.99994L8.97467 2.4666C9.57467 1.9916 10.4247 1.9916 11.0247 2.4666L12.1413 3.33325L15.833 6.19992L16.858 6.99994C17.2663 7.3166 17.4997 7.7999 17.4997 8.31657Z" fill="#191A23"/>
<path d="M10.8337 14.1667H9.16699C8.47533 14.1667 7.91699 14.7251 7.91699 15.4167V18.3334H12.0837V15.4167C12.0837 14.7251 11.5253 14.1667 10.8337 14.1667Z" fill="#191A23"/>
<path d="M7.91699 11.4584H6.25033C5.79199 11.4584 5.41699 11.0834 5.41699 10.6251V9.37508C5.41699 8.91675 5.79199 8.54175 6.25033 8.54175H7.91699C8.37533 8.54175 8.75033 8.91675 8.75033 9.37508V10.6251C8.75033 11.0834 8.37533 11.4584 7.91699 11.4584Z" fill="#191A23"/>
<path d="M13.75 11.4584H12.0833C11.625 11.4584 11.25 11.0834 11.25 10.6251V9.37508C11.25 8.91675 11.625 8.54175 12.0833 8.54175H13.75C14.2083 8.54175 14.5833 8.91675 14.5833 9.37508V10.6251C14.5833 11.0834 14.2083 11.4584 13.75 11.4584Z" fill="#191A23"/>
<path d="M15.8333 6.19992L12.1416 3.33325H14.9833C15.4416 3.33325 15.8166 3.69991 15.8166 4.15824L15.8333 6.19992Z" fill="#191A23"/>
</svg>
