<svg width="256" height="256" viewBox="0 0 256 256" fill="none" xmlns="http://www.w3.org/2000/svg">
<rect width="256" height="256" rx="4" fill="#FBFAFF"/>
<path fill-rule="evenodd" clip-rule="evenodd" d="M17.2545 92.8227C12.7969 102.749 12.7969 113.979 12.7969 136.44V141.614C12.7969 189.502 12.7969 213.446 27.6738 228.323C42.5508 243.2 66.4949 243.2 114.383 243.2H139.78C187.668 243.2 211.612 243.2 226.489 228.323C241.366 213.446 241.366 189.502 241.366 141.614V136.44C241.366 113.979 241.366 102.749 236.908 92.8227C232.451 82.8963 224.057 75.4353 207.27 60.5133L194.572 49.226C162.453 20.6756 146.393 6.40039 127.081 6.40039C107.77 6.40039 91.7104 20.6756 59.5912 49.226L46.8929 60.5133C30.1057 75.4353 21.7121 82.8963 17.2545 92.8227ZM62.7919 113.812C60.1281 119.872 60.1281 126.695 60.1281 140.342V141.786C60.1281 171.491 60.1281 186.344 69.3565 195.573C78.5849 204.801 93.4377 204.801 123.143 204.801H131.02C160.726 204.801 175.579 204.801 184.807 195.573C194.036 186.344 194.036 171.491 194.036 141.786V140.342C194.036 126.695 194.036 119.872 191.372 113.812C188.708 107.752 183.681 103.139 173.626 93.9123L169.688 90.2982C149.461 71.7372 139.348 62.4566 127.082 62.4566C114.816 62.4566 104.703 71.7371 84.4762 90.2982L80.5377 93.9123C70.4831 103.139 65.4557 107.752 62.7919 113.812Z" fill="#191A23"/>
<mask id="mask0_4950_15146" style="mask-type:alpha" maskUnits="userSpaceOnUse" x="12" y="6" width="230" height="238">
<path fill-rule="evenodd" clip-rule="evenodd" d="M17.2545 92.8227C12.7969 102.749 12.7969 113.979 12.7969 136.44V141.614C12.7969 189.502 12.7969 213.446 27.6738 228.323C42.5508 243.2 66.4949 243.2 114.383 243.2H139.78C187.668 243.2 211.612 243.2 226.489 228.323C241.366 213.446 241.366 189.502 241.366 141.614V136.44C241.366 113.979 241.366 102.749 236.908 92.8227C232.451 82.8963 224.057 75.4353 207.27 60.5133L194.572 49.226C162.453 20.6756 146.393 6.40039 127.081 6.40039C107.77 6.40039 91.7104 20.6756 59.5912 49.226L46.8929 60.5133C30.1057 75.4353 21.7121 82.8963 17.2545 92.8227ZM62.7919 113.812C60.1281 119.872 60.1281 126.695 60.1281 140.342V141.786C60.1281 171.491 60.1281 186.344 69.3565 195.573C78.5849 204.801 93.4377 204.801 123.143 204.801H131.02C160.726 204.801 175.579 204.801 184.807 195.573C194.036 186.344 194.036 171.491 194.036 141.786V140.342C194.036 126.695 194.036 119.872 191.372 113.812C188.708 107.752 183.681 103.139 173.626 93.9123L169.688 90.2982C149.461 71.7372 139.348 62.4566 127.082 62.4566C114.816 62.4566 104.703 71.7371 84.4762 90.2982L80.5377 93.9123C70.4831 103.139 65.4557 107.752 62.7919 113.812Z" fill="#B592FF"/>
</mask>
<g mask="url(#mask0_4950_15146)">
<circle cx="188.803" cy="67.1996" r="105.6" fill="#B592FF"/>
<path d="M93.2241 133.15C105.029 133.15 110.932 133.15 115.804 134.32C131.281 138.036 143.365 150.12 147.08 165.597C148.25 170.468 148.25 176.371 148.25 188.176C148.25 199.982 148.25 205.884 147.08 210.756C143.365 226.233 131.281 238.317 115.804 242.033C110.932 243.202 105.029 243.202 93.2241 243.202L80.5258 243.202C56.8201 243.202 44.9672 243.202 35.9128 238.589C27.9484 234.531 21.4731 228.055 17.415 220.091C12.8016 211.037 12.8016 199.184 12.8016 175.478L12.8016 133.15L93.2241 133.15Z" fill="#FDA5D6"/>
</g>
</svg>
