<svg width="32" height="32" viewBox="0 0 32 32" fill="none" xmlns="http://www.w3.org/2000/svg">
<path d="M12.6673 26V24H6.00065C5.26732 24 4.60065 23.7067 4.12065 23.2134C3.62732 22.7334 3.33398 22.0667 3.33398 21.3334C3.33398 19.96 4.40065 18.8134 5.74732 18.68C5.82732 18.6667 5.90732 18.6667 6.00065 18.6667H26.0007C26.094 18.6667 26.174 18.6667 26.254 18.68C26.894 18.7334 27.454 19.0134 27.8807 19.4534C28.4273 19.9867 28.7207 20.7467 28.654 21.5734C28.534 22.9734 27.2673 24 25.854 24H19.334V26C19.334 27.84 17.8407 29.3334 16.0007 29.3334C14.1607 29.3334 12.6673 27.84 12.6673 26Z" stroke="#191A23" stroke-width="1.5" stroke-linecap="round" stroke-linejoin="round"/>
<path d="M26.8936 7.06666L26.2536 18.68C26.1736 18.6667 26.0936 18.6667 26.0002 18.6667H6.00022C5.90688 18.6667 5.82688 18.6667 5.74688 18.68L5.10688 7.06666C4.86688 4.70666 6.72022 2.66666 9.08022 2.66666H22.9202C25.2802 2.66666 27.1336 4.70666 26.8936 7.06666Z" stroke="#191A23" stroke-width="1.5" stroke-linecap="round" stroke-linejoin="round"/>
<path d="M10.6543 2.66666V9.33332" stroke="#191A23" stroke-width="1.5" stroke-linecap="round" stroke-linejoin="round"/>
<path d="M16 2.66666V5.33332" stroke="#191A23" stroke-width="1.5" stroke-linecap="round" stroke-linejoin="round"/>
</svg>
