<svg width="28" height="28" viewBox="0 0 28 28" fill="none" xmlns="http://www.w3.org/2000/svg">
<path fill-rule="evenodd" clip-rule="evenodd" d="M18.8342 27.1012C14.5766 25.8928 10.5593 23.6123 7.21049 20.2635C3.86164 16.9146 1.58117 12.8974 0.37273 8.63972C0.365566 8.61449 0.358455 8.58947 0.3514 8.56465C0.154722 7.87263 0.00220843 7.336 1.70144e-05 6.60014C-0.00248662 5.75911 0.271523 4.70546 0.68343 3.9722C1.3918 2.71117 2.91283 1.0951 4.22659 0.430606C5.36171 -0.143535 6.70224 -0.143536 7.83737 0.430606C8.96035 0.998607 10.211 2.27002 10.9082 3.34237C11.7702 4.66815 11.7702 6.37731 10.9082 7.70309C10.6772 8.05836 10.348 8.38704 9.96578 8.76861C9.84676 8.88742 9.71577 8.97327 9.80276 9.15446C10.6665 10.9535 11.8445 12.641 13.3387 14.1352C14.833 15.6294 16.5204 16.8074 18.3195 17.6712C18.5071 17.7613 18.581 17.6327 18.7053 17.5082C19.0869 17.1259 19.4156 16.7967 19.7709 16.5657C21.0966 15.7037 22.8058 15.7037 24.1316 16.5657C25.1752 17.2443 26.4798 18.5224 27.0433 19.6366C27.6175 20.7717 27.6175 22.1122 27.0433 23.2474C26.3788 24.5611 24.7628 26.0821 23.5017 26.7905C22.7685 27.2024 21.7148 27.4764 20.8738 27.4739C20.1379 27.4717 19.6013 27.3192 18.9093 27.1225C18.8845 27.1155 18.8595 27.1084 18.8342 27.1012Z" fill="black"/>
</svg>
