<svg width="9" height="7" viewBox="0 0 9 7" fill="none" xmlns="http://www.w3.org/2000/svg">
<path d="M8.3848 0.834752C8.11236 0.952104 7.82594 1.03382 7.53263 1.07789C7.66976 1.05436 7.87154 0.807301 7.95186 0.707303C8.07388 0.556464 8.16687 0.384271 8.22612 0.199468C8.22612 0.185743 8.23983 0.166135 8.22612 0.156331C8.21921 0.152556 8.21146 0.150577 8.20359 0.150577C8.19572 0.150577 8.18797 0.152556 8.18106 0.156331C7.86256 0.32896 7.52359 0.460716 7.17217 0.548482C7.15992 0.552227 7.14689 0.552563 7.13446 0.549454C7.12204 0.546345 7.11069 0.539908 7.10165 0.530835C7.07429 0.498233 7.04484 0.46745 7.01349 0.43868C6.87015 0.310142 6.70753 0.20494 6.53157 0.12692C6.29405 0.0293876 6.03749 -0.0128515 5.78127 0.00339249C5.53266 0.0191075 5.28993 0.0858495 5.06819 0.199468C4.84983 0.319255 4.65793 0.481989 4.504 0.677891C4.34208 0.879526 4.22518 1.11353 4.16117 1.36415C4.10838 1.60255 4.1024 1.84895 4.14354 2.08963C4.14354 2.13081 4.14354 2.13669 4.10828 2.13081C2.7115 1.92493 1.56548 1.42886 0.629073 0.364171C0.587933 0.317113 0.566384 0.317113 0.533081 0.364171C0.125607 0.983769 0.323467 1.96415 0.83281 2.44845C0.901375 2.51316 0.9719 2.5759 1.04634 2.63472C0.812811 2.61813 0.584984 2.55479 0.37636 2.44845C0.33718 2.42296 0.315631 2.43669 0.313672 2.48374C0.308118 2.54898 0.308118 2.61458 0.313672 2.67982C0.354548 2.99248 0.477656 3.28867 0.670408 3.53809C0.863159 3.78751 1.11864 3.98122 1.41072 4.0994C1.48192 4.12993 1.55611 4.15293 1.63209 4.16803C1.41589 4.21063 1.19416 4.21726 0.975818 4.18764C0.928801 4.17783 0.91117 4.20332 0.928801 4.24842C1.21678 5.03272 1.8417 5.27193 2.30011 5.40527C2.3628 5.41507 2.42549 5.41507 2.49601 5.43076C2.49601 5.43076 2.49601 5.43076 2.48426 5.44252C2.34908 5.68958 1.80252 5.85624 1.55177 5.94251C1.09408 6.10706 0.606096 6.16995 0.121689 6.12682C0.0452872 6.11506 0.0276561 6.11702 0.00806602 6.12682C-0.0115241 6.13663 0.00806602 6.1582 0.0296151 6.1778C0.127566 6.24251 0.225516 6.29937 0.327385 6.35427C0.630649 6.51983 0.95126 6.65134 1.28338 6.74642C3.00339 7.22092 4.9389 6.87191 6.22989 5.58762C7.24465 4.57979 7.60119 3.18962 7.60119 1.79748C7.60119 1.74454 7.66584 1.71317 7.70306 1.68572C7.95979 1.4855 8.18613 1.24906 8.375 0.983769C8.40771 0.944224 8.42448 0.893874 8.42202 0.842595C8.42202 0.813183 8.42202 0.819066 8.3848 0.834752Z" fill="white"/>
</svg>
